<svg width="20" height="21" viewBox="0 0 20 21" fill="none" xmlns="http://www.w3.org/2000/svg">
<path fill-rule="evenodd" clip-rule="evenodd" d="M14.676 0.628045C11.5298 -0.0752338 8.26718 -0.0752338 5.12101 0.628045L4.78201 0.703045C3.89702 0.900907 3.08421 1.34023 2.43387 1.97221C1.78353 2.60419 1.32112 3.40409 1.09801 4.28305C0.300502 7.42557 0.300502 10.7175 1.09801 13.86C1.31078 14.6983 1.74141 15.4654 2.34624 16.0836C2.95107 16.7018 3.70859 17.149 4.54201 17.38L5.00701 20.156C5.02185 20.2442 5.06005 20.3268 5.11764 20.3951C5.17523 20.4635 5.25009 20.5152 5.33443 20.5448C5.41877 20.5744 5.50951 20.5809 5.5972 20.5635C5.68489 20.5461 5.76632 20.5056 5.83301 20.446L8.564 18.003C10.6141 18.1282 12.6716 17.9642 14.676 17.516L15.016 17.441C15.901 17.2432 16.7138 16.8039 17.3641 16.1719C18.0145 15.5399 18.4769 14.74 18.7 13.861C19.4974 10.7185 19.4974 7.42658 18.7 4.28405C18.4768 3.40496 18.0142 2.60498 17.3637 1.97298C16.7132 1.34099 15.9002 0.901742 15.015 0.704045L14.676 0.628045ZM5.96501 4.20205C5.77915 4.17499 5.58964 4.2124 5.42801 4.30805H5.41401C5.03901 4.52805 4.70101 4.80505 4.41301 5.13105C4.17301 5.40805 4.043 5.68805 4.00901 5.95805C3.98901 6.11805 4.00301 6.28005 4.05001 6.43304L4.06801 6.44305C4.33801 7.23604 4.69001 7.99904 5.12001 8.71704C5.67446 9.72553 6.35676 10.6582 7.15 11.492L7.17401 11.526L7.21201 11.554L7.235 11.581L7.263 11.605C8.09973 12.4007 9.03463 13.0862 10.045 13.645C11.2 14.274 11.901 14.571 12.322 14.695V14.701C12.445 14.739 12.557 14.756 12.67 14.756C13.0285 14.7295 13.3679 14.5838 13.634 14.342C13.959 14.054 14.234 13.715 14.448 13.338V13.331C14.649 12.951 14.581 12.593 14.291 12.35C13.7085 11.8411 13.0786 11.389 12.41 11C11.962 10.757 11.507 10.904 11.323 11.15L10.93 11.646C10.728 11.892 10.362 11.858 10.362 11.858L10.352 11.864C7.62101 11.167 6.89201 8.40205 6.89201 8.40205C6.89201 8.40205 6.85801 8.02604 7.11101 7.83404L7.603 7.43805C7.839 7.24605 8.00301 6.79205 7.75001 6.34405C7.36361 5.67481 6.91245 5.04512 6.40301 4.46405C6.29189 4.32729 6.13607 4.23415 5.96301 4.20105L5.96501 4.20205ZM10.579 3.00005C10.4464 3.00005 10.3192 3.05272 10.2255 3.14649C10.1317 3.24026 10.079 3.36744 10.079 3.50005C10.079 3.63265 10.1317 3.75983 10.2255 3.8536C10.3192 3.94737 10.4464 4.00005 10.579 4.00005C11.844 4.00005 12.894 4.41305 13.725 5.20505C14.152 5.63805 14.485 6.15105 14.703 6.71305C14.922 7.27605 15.022 7.87704 14.996 8.47904C14.9932 8.54471 15.0034 8.61027 15.026 8.67198C15.0486 8.7337 15.0831 8.79037 15.1276 8.83875C15.2174 8.93646 15.3424 8.99448 15.475 9.00004C15.6076 9.00561 15.737 8.95828 15.8347 8.86845C15.9324 8.77862 15.9904 8.65365 15.996 8.52104C16.027 7.78053 15.9041 7.04163 15.635 6.35105C15.3647 5.65718 14.955 5.02616 14.431 4.49705L14.421 4.48705C13.39 3.50205 12.085 3.00005 10.579 3.00005ZM10.545 4.64405C10.4124 4.64405 10.2852 4.69672 10.1915 4.79049C10.0977 4.88426 10.045 5.01144 10.045 5.14405C10.045 5.27665 10.0977 5.40383 10.1915 5.4976C10.2852 5.59137 10.4124 5.64405 10.545 5.64405H10.562C11.474 5.70905 12.138 6.01305 12.603 6.51205C13.08 7.02605 13.327 7.66504 13.308 8.45504C13.305 8.58765 13.3547 8.71604 13.4463 8.81197C13.5379 8.90789 13.6639 8.9635 13.7965 8.96655C13.9291 8.96959 14.0575 8.91984 14.1534 8.82823C14.2494 8.73662 14.305 8.61065 14.308 8.47804C14.332 7.44104 13.998 6.54605 13.336 5.83205V5.83005C12.659 5.10405 11.73 4.72005 10.612 4.64505L10.595 4.64305L10.545 4.64405ZM10.526 6.31905C10.4591 6.31314 10.3917 6.32078 10.3278 6.34151C10.2639 6.36223 10.2048 6.39562 10.1541 6.43968C10.1034 6.48374 10.0621 6.53757 10.0327 6.59794C10.0032 6.65832 9.98623 6.72401 9.98273 6.79109C9.97924 6.85818 9.9893 6.92528 10.0123 6.98839C10.0353 7.0515 10.0708 7.10932 10.1167 7.15841C10.1625 7.2075 10.2178 7.24685 10.2792 7.2741C10.3406 7.30136 10.4068 7.31596 10.474 7.31705C10.892 7.33905 11.159 7.46504 11.327 7.63405C11.496 7.80405 11.622 8.07704 11.645 8.50404C11.6463 8.57114 11.661 8.63731 11.6884 8.69859C11.7157 8.75987 11.7551 8.81501 11.8043 8.86074C11.8534 8.90646 11.9112 8.94183 11.9743 8.96473C12.0374 8.98763 12.1044 8.9976 12.1714 8.99404C12.2385 8.99048 12.3041 8.97347 12.3644 8.94402C12.4247 8.91456 12.4784 8.87327 12.5224 8.8226C12.5664 8.77193 12.5998 8.71292 12.6205 8.64908C12.6412 8.58525 12.6489 8.5179 12.643 8.45105C12.611 7.85105 12.423 7.32104 12.038 6.93105C11.651 6.54105 11.124 6.35105 10.526 6.31905Z" fill="#323232"/>
</svg>
